# xmcd CD database file
#
# Track frame offsets:
#	150
#	34735
#	69265
#	93612
#	127930
#	169152
#
# Disc length: 3189 seconds
#
# Revision: 0
# Processed by: cddbd v1.5.2PL0 Copyright (c) Steve Scherf et al.
# Submitted via: CDex 1.51
#
DISCID=470c7306
DTITLE=Desconhecido - Viva Melhor Musicoterapia
DYEAR=1900
DGENRE=New Age
TTITLE0=Prithivi
TTITLE1=Apas
TTITLE2=Tejas
TTITLE3=Vayu
TTITLE4=Mente e Corpo
TTITLE5=Comunhão
EXTD=
EXTT0=
EXTT1=
EXTT2=
EXTT3=
EXTT4=
EXTT5=
PLAYORDER=
